<svg style="max-height: 500px" version="1.1" xmlns="http://www.w3.org/2000/svg" viewBox="311.296 192.512 399.36 438.272" width="399.36" height="438.272">

<path transform="translate(522.138427734375,202.156494140625)" fill="#097EB7" d="M0 0 C3.67546159 1.8500896 7.26810138 3.83985672 10.86157227 5.84350586 C11.81644531 6.36879883 12.77131836 6.8940918 13.75512695 7.43530273 C24.63843128 13.42403559 35.44668373 19.53638037 46.12792969 25.87866211 C52.91319518 29.89956018 59.76107837 33.81021564 66.61157227 37.71850586 C67.21725037 38.06407532 67.82292847 38.40964478 68.44696045 38.76568604 C71.45928397 40.48404615 74.4720594 42.2016118 77.48510742 43.91870117 C82.25857345 46.63988745 87.02885569 49.366629 91.79907227 52.09350586 C93.49047766 53.0596532 95.1818839 54.02579905 96.87329102 54.99194336 C100.23175473 56.91087759 103.58830645 58.83310297 106.94360352 60.75756836 C116.4527333 66.20809914 125.98605623 71.61301421 135.54907227 76.96850586 C137.12833496 77.85397095 137.12833496 77.85397095 138.73950195 78.75732422 C143.52226277 81.43449284 148.31137696 84.09667732 153.13110352 86.70678711 C175.21799406 98.69135303 175.21799406 98.69135303 179.94251442 110.55867958 C181.00927411 114.37141048 181.14568947 117.91473606 181.1289978 121.83822632 C181.13352892 122.62583395 181.13806003 123.41344157 181.14272845 124.2249161 C181.15535335 126.85483829 181.15375333 129.48455288 181.15209961 132.11450195 C181.15808601 134.00386317 181.16489181 135.89322195 181.17245483 137.78257751 C181.19010961 142.90864205 181.19480997 148.03463979 181.19608641 153.16073179 C181.19750874 156.3646244 181.20177987 159.56850006 181.20708084 162.77238846 C181.22557863 173.95333178 181.23375167 185.13422743 181.23217773 196.31518555 C181.23097606 206.73190483 181.25208422 217.14841699 181.28366506 227.56508386 C181.3098274 236.51388566 181.32054506 245.46261981 181.31926692 254.41145957 C181.31875732 259.75379509 181.32443958 265.09594649 181.34562302 270.43824387 C181.36500486 275.46325362 181.36513014 280.48790356 181.35058975 285.5129261 C181.34850057 287.35434177 181.35320905 289.19577997 181.36531067 291.03715706 C181.38079398 293.55679801 181.37143542 296.07520295 181.35604858 298.59481812 C181.36633571 299.31837569 181.37662284 300.04193326 181.38722169 300.78741682 C181.30611804 306.82349239 179.44462519 312.01621085 175.3301481 316.51973474 C170.34045934 321.19498406 164.15962136 324.33556275 158.23657227 327.65600586 C156.50477254 328.64084665 154.77299193 329.62572219 153.04211426 330.61218262 C151.83531237 331.2997819 150.62802994 331.98653841 149.42028809 332.67248535 C142.61367448 336.54130375 135.86171389 340.50224705 129.11157227 344.46850586 C127.87510148 345.19420743 126.63861064 345.91987483 125.40209961 346.64550781 C117.339644 351.37880978 109.28895323 356.13190909 101.24291992 360.89306641 C88.80541829 368.24890825 76.33353123 375.54629382 63.86157227 382.84350586 C62.80115723 383.46402832 61.74074219 384.08455078 60.64819336 384.72387695 C54.74300135 388.17792839 48.83361045 391.62465629 42.91967773 395.0637207 C40.78754193 396.30460127 38.65643575 397.54725195 36.52612305 398.79125977 C-5.26257032 423.18627653 -5.26257032 423.18627653 -18.13842773 419.84350586 C-24.07853803 417.40882546 -29.59111113 414.04717543 -35.13842773 410.84350586 C-36.75349486 409.92929831 -38.36939738 409.0165652 -39.98608398 408.10522461 C-45.3879646 405.04863514 -50.76405678 401.94813997 -56.13842773 398.84350586 C-58.26468134 397.61685932 -60.3909851 396.39029972 -62.51733398 395.16381836 C-65.83709446 393.24867602 -69.15655916 391.33303058 -72.47509766 389.41577148 C-78.41196319 385.98692784 -84.35700844 382.57342631 -90.31567383 379.18261719 C-103.87555303 371.46591615 -117.33022013 363.57077104 -130.68212891 355.49926758 C-147.2020179 345.5197324 -163.90573018 335.79998759 -181.02148438 326.87548828 C-190.29682099 321.94168455 -196.60364082 317.07361522 -200.13842773 306.84350586 C-200.87321087 301.78058473 -200.9204664 296.74321763 -200.93603516 291.63696289 C-200.95820357 290.13761541 -200.98234547 288.638296 -201.00831127 287.13900948 C-201.07025303 283.17286444 -201.10128438 279.20710543 -201.12330198 275.24055958 C-201.14298101 272.12192588 -201.17721822 269.00352556 -201.2111339 265.8850199 C-201.32366073 255.30620418 -201.35568399 244.72752211 -201.37670898 234.14819336 C-201.38077636 232.37330235 -201.38489369 230.59841145 -201.38905907 228.82352066 C-201.40790765 220.51451185 -201.42220874 212.20551107 -201.43067104 203.89648521 C-201.44053352 194.38201825 -201.46716817 184.86777829 -201.50717193 175.35339153 C-201.53732162 167.92419049 -201.55213657 160.49505512 -201.55545205 153.06579411 C-201.55779243 148.65611188 -201.56663038 144.24667828 -201.59191322 139.83706284 C-201.61519636 135.71452963 -201.61942656 131.59240961 -201.60915184 127.46982765 C-201.60865739 125.96379149 -201.61495101 124.45773466 -201.62870789 122.95176125 C-201.7046389 114.14641603 -201.75886774 106.69780536 -195.32958984 99.94311523 C-194.71865479 99.52868164 -194.10771973 99.11424805 -193.47827148 98.68725586 C-192.77943848 98.20901367 -192.08060547 97.73077148 -191.3605957 97.23803711 C-187.52909282 94.83356068 -183.65028195 92.54906829 -179.70092773 90.34350586 C-178.79987305 89.83432617 -177.89881836 89.32514648 -176.97045898 88.80053711 C-174.03011586 87.14157302 -171.08488629 85.4915815 -168.13842773 83.84350586 C-167.12377441 83.2750293 -166.10912109 82.70655273 -165.0637207 82.12084961 C-160.85448921 79.76267762 -156.64454264 77.40579613 -152.43286133 75.05200195 C-143.25510071 69.92006306 -134.12140147 64.71400344 -124.99975586 59.4831543 C-120.12119063 56.68755327 -115.23835199 53.89943252 -110.35598755 51.11047363 C-108.57165714 50.09106602 -106.78750824 49.07134149 -105.00341797 48.05151367 C-99.58852939 44.95637253 -94.17302049 41.86234414 -88.75418091 38.77412415 C-76.99961503 32.07511361 -65.25845282 25.35521838 -53.57592773 18.53100586 C-52.59978516 17.9613208 -51.62364258 17.39163574 -50.61791992 16.8046875 C-45.97343055 14.0920012 -41.33480889 11.36995574 -36.70483398 8.63256836 C-35.01606552 7.64032363 -33.32726519 6.64813315 -31.63842773 5.65600586 C-30.89133545 5.21023193 -30.14424316 4.76445801 -29.37451172 4.30517578 C-19.66666247 -1.38013901 -10.79868998 -5.07160772 0 0 Z"/>
<path transform="translate(621,321)" fill="#FAFBFB" d="M0 0 C3.8079964 1.58666517 5.86490008 3.49973807 8 7 C8.34057617 9.93261719 8.34057617 9.93261719 8.29296875 13.296875 C8.28330078 14.50214844 8.27363281 15.70742188 8.26367188 16.94921875 C8.23853516 18.20347656 8.21339844 19.45773437 8.1875 20.75 C8.17396484 22.01972656 8.16042969 23.28945313 8.14648438 24.59765625 C8.11113518 27.73195184 8.05732873 30.86602938 8 34 C14.6 34 21.2 34 28 34 C28.02682159 38.47920597 28.04675177 42.95825351 28.0625 47.4375 C28.07087891 48.71689453 28.07925781 49.99628906 28.08789062 51.31445312 C28.09272461 53.13686523 28.09272461 53.13686523 28.09765625 54.99609375 C28.10551147 56.68496704 28.10551147 56.68496704 28.11352539 58.40795898 C28 61 28 61 27 62 C21.06 62 15.12 62 9 62 C9 76.52 9 91.04 9 106 C15.27 106 21.54 106 28 106 C30.58955157 108.58955157 29.18558792 115.95177603 29.1875 119.4375 C29.19974609 120.60861328 29.21199219 121.77972656 29.22460938 122.98632812 C29.22654297 124.10330078 29.22847656 125.22027344 29.23046875 126.37109375 C29.23457764 127.40161865 29.23868652 128.43214355 29.24291992 129.49389648 C29 132 29 132 27 134 C25.02880859 134.22705078 25.02880859 134.22705078 22.6484375 134.1953125 C21.79765625 134.18886719 20.946875 134.18242187 20.0703125 134.17578125 C18.73613281 134.15064453 18.73613281 134.15064453 17.375 134.125 C16.4778125 134.11597656 15.580625 134.10695313 14.65625 134.09765625 C12.43723414 134.0740497 10.21874923 134.0411231 8 134 C8.01571045 134.9379541 8.0314209 135.8759082 8.04760742 136.84228516 C8.09891965 140.34234205 8.13643872 143.8419957 8.16479492 147.34228516 C8.17982543 148.85341727 8.20025564 150.36450618 8.22631836 151.87548828 C8.26295689 154.05512187 8.27978338 156.23417575 8.29296875 158.4140625 C8.3086792 159.7232666 8.32438965 161.0324707 8.34057617 162.38134766 C7.8922706 167.14463454 6.57312938 170.5743515 3 173.8125 C-1.72127676 176.61575808 -6.66686637 176.6054724 -12 176 C-16.5108365 173.74458175 -17.71953804 172.56092392 -20 168 C-20 156.78 -20 145.56 -20 134 C-78.41 134 -136.82 134 -197 134 C-198.10977716 137.32933149 -198.14177182 139.88398352 -198.17578125 143.390625 C-198.19962891 144.65777344 -198.22347656 145.92492187 -198.24804688 147.23046875 C-198.29452314 149.89489108 -198.32214375 152.55769224 -198.34179688 155.22265625 C-198.60846506 167.46458619 -198.60846506 167.46458619 -203 173 C-208.08618861 176.39079241 -214.06950735 175.68054834 -220 175 C-224.04917639 172.27459282 -225.51995375 169.55500442 -227 165 C-227.22705078 161.58666992 -227.22705078 161.58666992 -227.1953125 157.73046875 C-227.1924826 157.04946609 -227.18965271 156.36846344 -227.18673706 155.66682434 C-227.17560525 153.50686545 -227.15051457 151.34733206 -227.125 149.1875 C-227.11496111 147.71680289 -227.10583685 146.24609924 -227.09765625 144.77539062 C-227.07568913 141.18345714 -227.0412082 137.59177015 -227 134 C-228.89685547 134.08701172 -228.89685547 134.08701172 -230.83203125 134.17578125 C-232.49215065 134.22267728 -234.15230989 134.26817761 -235.8125 134.3125 C-237.06256836 134.3753418 -237.06256836 134.3753418 -238.33789062 134.43945312 C-244.37774929 134.56073543 -244.37774929 134.56073543 -247.0546875 132.1484375 C-248.44611759 127.51417035 -248.39404465 123.1236344 -248.3125 118.3125 C-248.31572266 117.35021484 -248.31894531 116.38792969 -248.32226562 115.39648438 C-248.26723281 108.26723281 -248.26723281 108.26723281 -246 106 C-239.52873237 104.82340589 -233.70867761 105 -227 105 C-227 90.81 -227 76.62 -227 62 C-233.6 62 -240.2 62 -247 62 C-249.05931145 57.88137709 -248.18489262 52.52640955 -248.1875 48 C-248.19974609 46.88109375 -248.21199219 45.7621875 -248.22460938 44.609375 C-248.22654297 43.54203125 -248.22847656 42.4746875 -248.23046875 41.375 C-248.23457764 40.39273438 -248.23868652 39.41046875 -248.24291992 38.3984375 C-248 36 -248 36 -246 34 C-244.12060547 33.68115234 -244.12060547 33.68115234 -241.8671875 33.5859375 C-240.65869141 33.52792969 -240.65869141 33.52792969 -239.42578125 33.46875 C-238.58402344 33.4378125 -237.74226563 33.406875 -236.875 33.375 C-235.60076172 33.31699219 -235.60076172 33.31699219 -234.30078125 33.2578125 C-232.20088316 33.16343506 -230.10047109 33.08062414 -228 33 C-227.98541748 32.29915283 -227.97083496 31.59830566 -227.95581055 30.8762207 C-227.88114513 27.68776991 -227.78454525 24.50034487 -227.6875 21.3125 C-227.66494141 20.20970703 -227.64238281 19.10691406 -227.61914062 17.97070312 C-227.58369141 16.90400391 -227.54824219 15.83730469 -227.51171875 14.73828125 C-227.48553467 13.75899658 -227.45935059 12.77971191 -227.43237305 11.77075195 C-226.93290546 8.57004182 -225.81918677 6.65429874 -224 4 C-223.59652344 3.40832031 -223.19304687 2.81664062 -222.77734375 2.20703125 C-219.92595454 0.27059331 -216.8824118 0.60792397 -213.5625 0.6875 C-212.24378906 0.69136719 -210.92507813 0.69523437 -209.56640625 0.69921875 C-204.23913365 1.1485068 -204.23913365 1.1485068 -202 3 C-198.38945496 9.36196268 -198.64625167 15.2547194 -198.8125 22.4375 C-198.83280273 24.1071582 -198.83280273 24.1071582 -198.85351562 25.81054688 C-198.88867003 28.54087212 -198.93787894 31.27017744 -199 34 C-198.1378186 33.98747192 -197.27563721 33.97494385 -196.3873291 33.96203613 C-155.72884299 33.37632443 -115.07235106 32.89321562 -74.40914917 32.87661743 C-71.82842624 32.87500992 -69.24771238 32.87146089 -66.66699219 32.86743164 C-62.58596311 32.86155039 -58.50497139 32.86136607 -54.42394066 32.86568069 C-52.94278165 32.86665982 -51.4616206 32.86613177 -49.98046303 32.86384201 C-39.95028477 32.85104829 -30.00015505 33.26994013 -20 34 C-20.0165564 33.23453857 -20.03311279 32.46907715 -20.0501709 31.68041992 C-20.11324063 28.57872582 -20.14993126 25.47710427 -20.1875 22.375 C-20.21263672 21.28058594 -20.23777344 20.18617188 -20.26367188 19.05859375 C-20.35650097 8.84739332 -20.35650097 8.84739332 -17 4 C-11.9344306 -0.81229093 -6.63051545 -0.84020272 0 0 Z"/>
<path transform="translate(602,383)" fill="#0A7EB6" d="M0 0 C0.03015477 3.58331411 0.04716758 7.16659429 0.0625 10.75 C0.07087891 11.72710937 0.07925781 12.70421875 0.08789062 13.7109375 C0.10982501 20.64220184 -0.14303048 27.52944103 -0.50610352 34.45019531 C-0.55335823 35.37160309 -0.60061295 36.29301086 -0.64929962 37.24234009 C-0.76499755 39.49495828 -0.88192514 41.74750536 -1 44 C-18.08332525 44.03060259 -35.16665109 44.05097722 -52.25 44.0625 C-53.5101656 44.06335602 -54.77033119 44.06421204 -56.06868362 44.06509399 C-88.36156324 44.08447742 -120.64854491 44.03814925 -152.9375 43.5 C-153.65561356 43.48804218 -154.37372711 43.47608437 -155.11360168 43.46376419 C-163.40941047 43.32432662 -171.7046389 43.16537566 -180 43 C-180 28.81 -180 14.62 -180 0 C-42.24981413 -1.95687732 -42.24981413 -1.95687732 0 0 Z"/>
<path transform="translate(484.431884765625,701.437255859375)" fill="#02325F" d="M0 0 C3.70223562 0.20956051 5.81634732 0.79597594 8.45239258 3.48461914 C12.29971809 8.87023166 15.21324399 14.77271716 18.1237793 20.7019043 C20.15127625 24.71782879 22.49145179 28.50496988 24.88061523 32.31274414 C28.56811523 38.26237002 28.56811523 38.26237002 28.56811523 40.56274414 C31.95881596 37.47828817 34.05589188 34.28740617 36.28295898 30.29321289 C36.62057755 29.69398514 36.95819611 29.09475739 37.30604553 28.47737122 C38.37884713 26.57177043 39.44290172 24.66148647 40.50561523 22.75024414 C41.21520142 21.47836883 41.92548187 20.20688059 42.63647461 18.93579102 C42.98167145 18.31858185 43.32686829 17.70137268 43.68252563 17.06546021 C44.7000427 15.2668026 45.74112449 13.48357248 46.78637695 11.70092773 C48.55482304 8.7336809 48.55482304 8.7336809 49.58813477 6.1159668 C50.50952148 4.17602539 50.50952148 4.17602539 53.56811523 1.56274414 C59.17811523 1.56274414 64.78811523 1.56274414 70.56811523 1.56274414 C70.56811523 28.62274414 70.56811523 55.68274414 70.56811523 83.56274414 C65.28811523 83.56274414 60.00811523 83.56274414 54.56811523 83.56274414 C54.56811523 66.73274414 54.56811523 49.90274414 54.56811523 32.56274414 C53.90811523 32.56274414 53.24811523 32.56274414 52.56811523 32.56274414 C52.33350586 33.21243164 52.09889648 33.86211914 51.85717773 34.53149414 C50.15455863 38.53522877 48.06776875 42.26969027 45.94311523 46.06274414 C45.50306152 46.85213379 45.06300781 47.64152344 44.60961914 48.45483398 C40.78108421 55.27661223 36.74957728 61.95182929 32.56811523 68.56274414 C30.36108398 68.46899414 30.36108398 68.46899414 27.56811523 67.56274414 C25.76817132 65.40886167 24.34301804 63.42891248 22.88061523 61.06274414 C22.24748413 60.07733643 22.24748413 60.07733643 21.6015625 59.07202148 C17.38607347 52.44334592 13.42699577 45.65510573 9.50170898 38.85180664 C7.89830273 35.80919384 7.89830273 35.80919384 6.56811523 34.56274414 C6.23811523 50.73274414 5.90811523 66.90274414 5.56811523 83.56274414 C0.28811523 83.56274414 -4.99188477 83.56274414 -10.43188477 83.56274414 C-10.45443579 73.01892721 -10.47279985 62.47512617 -10.48369694 51.93129063 C-10.48892577 47.0358904 -10.49602341 42.14050746 -10.50732422 37.24511719 C-10.51815311 32.52486436 -10.5241616 27.80462822 -10.52676201 23.08436394 C-10.52861626 21.2793546 -10.53223686 19.47434622 -10.53761482 17.66934395 C-10.54482529 15.1501477 -10.54587571 12.63102124 -10.54541016 10.11181641 C-10.54900543 9.35800186 -10.55260071 8.60418732 -10.55630493 7.82752991 C-10.54103081 0.23947883 -6.85717272 0.39361414 0 0 Z"/>
<path transform="translate(878,704)" fill="#02315E" d="M0 0 C46.06527778 0 46.06527778 0 53.52734375 7.14453125 C57.97495629 12.7482871 59.72400678 19.40424795 59.37890625 26.484375 C58.23518517 34.07773969 55.51347697 39.38260785 49.390625 44.0390625 C48.93171875 44.35617187 48.4728125 44.67328125 48 45 C48.6607399 49.3083303 50.18151384 53.06169933 51.94140625 57.015625 C52.22853989 57.67205994 52.51567352 58.32849487 52.81150818 59.00482178 C53.72384529 61.08863034 54.6428035 63.16943037 55.5625 65.25 C56.48465946 67.34531522 57.40540655 69.44123303 58.32420349 71.5380249 C58.89512711 72.83997949 59.46820266 74.14099288 60.04359436 75.440979 C62 79.88904527 62 79.88904527 62 81 C55.73 81 49.46 81 43 81 C42.15695312 79.09734375 41.31390625 77.1946875 40.4453125 75.234375 C39.62457921 73.3842474 38.80383919 71.53412278 37.98291016 69.68408203 C37.41421311 68.4020052 36.84584982 67.11978026 36.27783203 65.83740234 C35.45954543 63.99016691 34.63994379 62.14351418 33.8203125 60.296875 C33.32805176 59.18666992 32.83579102 58.07646484 32.32861328 56.93261719 C31.27075648 54.59763448 30.14640353 52.29280706 29 50 C25.04 49.67 21.08 49.34 17 49 C17 59.56 17 70.12 17 81 C11.39 81 5.78 81 0 81 C0 54.27 0 27.54 0 0 Z"/>
<path transform="translate(231,704)" fill="#02315D" d="M0 0 C16 0 16 0 20.5 4.40625 C21.7243835 6.40324092 22.8887452 8.43791357 24 10.5 C25.31058159 12.6912527 26.62314453 14.88132136 27.9375 17.0703125 C28.59492188 18.20758789 29.25234375 19.34486328 29.9296875 20.51660156 C33.32797762 26.324729 37.20527268 31.82182315 41 37.375 C42.36005384 39.37882932 43.71474507 41.38631547 45.0625 43.3984375 C45.63097656 44.24067871 46.19945312 45.08291992 46.78515625 45.95068359 C48 48 48 48 48 50 C48.66 50 49.32 50 50 50 C50 33.5 50 17 50 0 C54.95 0 59.9 0 65 0 C65 26.73 65 53.46 65 81 C60.05 81 55.1 81 50 81 C47.01856735 77.27320919 44.39500435 73.67612787 41.8046875 69.6953125 C41.41510361 69.09840103 41.02551971 68.50148956 40.62413025 67.88648987 C39.37216925 65.96744979 38.12361827 64.04621626 36.875 62.125 C35.16907163 59.50839447 33.4614139 56.89291887 31.75390625 54.27734375 C31.13158363 53.32324364 31.13158363 53.32324364 30.49668884 52.34986877 C26.04808648 45.53271249 21.53373711 38.76076895 17 32 C16.97494385 32.91587891 16.9498877 33.83175781 16.92407227 34.77539062 C16.82748071 38.25706727 16.72836708 41.73865493 16.62768555 45.22021484 C16.58504837 46.71139835 16.54334363 48.20260888 16.50268555 49.69384766 C16.21675189 60.14984131 15.7024836 70.56310083 15 81 C10.05 81 5.1 81 0 81 C0 54.27 0 27.54 0 0 Z"/>
<path transform="translate(598,703)" fill="#02315E" d="M0 0 C5.61 0 11.22 0 17 0 C20.19124736 6.91061417 22.83621132 13.90692848 25.3359375 21.09375 C25.73777252 22.23928345 26.13960754 23.38481689 26.55361938 24.56506348 C27.83092907 28.20882228 29.10308373 31.85435548 30.375 35.5 C31.22100569 37.91678868 32.0673569 40.33345644 32.9140625 42.75 C34.14761764 46.27097125 35.38043384 49.79218818 36.61029053 53.31445312 C38.37229156 58.36058595 40.13920521 63.40452056 41.93847656 68.4375 C42.2234903 69.23627563 42.50850403 70.03505127 42.80215454 70.85803223 C43.3176348 72.2996846 43.83565439 73.74043275 44.35678101 75.18005371 C46 79.77911827 46 79.77911827 46 82 C40.39 82 34.78 82 29 82 C26.84370792 76.6811462 24.81672901 71.45018704 23 66 C13.43 66 3.86 66 -6 66 C-7.98 71.28 -9.96 76.56 -12 82 C-17.28 82 -22.56 82 -28 82 C-26.87488681 75.24932084 -26.87488681 75.24932084 -25.69995117 71.89526367 C-25.43803986 71.14022552 -25.17612854 70.38518738 -24.90628052 69.60726929 C-24.62138763 68.80230011 -24.33649475 67.99733093 -24.04296875 67.16796875 C-23.74357391 66.31030914 -23.44417908 65.45264954 -23.13571167 64.56900024 C-22.15801837 61.7733697 -21.17300523 58.9803853 -20.1875 56.1875 C-19.51143107 54.26073318 -18.83557008 52.33389339 -18.15991211 50.40698242 C-12.23991634 33.55605714 -6.16166754 16.76386644 0 0 Z"/>
<path transform="translate(806,704)" fill="#012F5C" d="M0 0 C17.16 0 34.32 0 52 0 C52 4.95 52 9.9 52 15 C40.12 15 28.24 15 16 15 C16 20.61 16 26.22 16 32 C27.55 32 39.1 32 51 32 C51 36.95 51 41.9 51 47 C39.45 47 27.9 47 16 47 C16 53.27 16 59.54 16 66 C28.54 66 41.08 66 54 66 C54 70.95 54 75.9 54 81 C36.18 81 18.36 81 0 81 C0 54.27 0 27.54 0 0 Z"/>
<path transform="translate(401,704)" fill="#012F5C" d="M0 0 C17.16 0 34.32 0 52 0 C52 4.95 52 9.9 52 15 C40.12 15 28.24 15 16 15 C16 20.61 16 26.22 16 32 C27.55 32 39.1 32 51 32 C51 36.95 51 41.9 51 47 C39.45 47 27.9 47 16 47 C16 53.27 16 59.54 16 66 C28.21 66 40.42 66 53 66 C53 70.95 53 75.9 53 81 C35.18 81 17.36 81 -1 81 C-0.67 54.27 -0.34 27.54 0 0 Z"/>
<path transform="translate(158,704)" fill="#01305C" d="M0 0 C17.49 0 34.98 0 53 0 C53 4.95 53 9.9 53 15 C40.79 15 28.58 15 16 15 C16 20.61 16 26.22 16 32 C27.22 32 38.44 32 50 32 C51 39 51 39 51 47 C33.675 47.495 33.675 47.495 16 48 C15.67 53.94 15.34 59.88 15 66 C27.87 66 40.74 66 54 66 C54 70.95 54 75.9 54 81 C36.18 81 18.36 81 0 81 C0 54.27 0 27.54 0 0 Z"/>
<path transform="translate(684.875,701.5625)" fill="#03315E" d="M0 0 C0.79647949 0.00829834 1.59295898 0.01659668 2.41357422 0.02514648 C11.86665319 0.29725417 17.49206903 3.43045025 24.49609375 9.65625 C26.78799936 12.1625065 28.17212459 14.04470662 28.0546875 17.515625 C26.7151827 20.28468533 25.00058496 20.89592098 22.25 22.1875 C21.36570312 22.61546875 20.48140625 23.0434375 19.5703125 23.484375 C17.125 24.4375 17.125 24.4375 14.125 24.4375 C13.50625 23.0453125 13.50625 23.0453125 12.875 21.625 C11.1128792 18.41542283 10.19707519 17.2699659 7.125 15.4375 C1.90164874 14.56168128 -2.66770787 14.94639812 -7.5625 16.9375 C-9.98770846 19.55934699 -10.29475912 20.12285455 -10.5 23.5 C-10.28915166 27.35510072 -10.28915166 27.35510072 -8.21484375 29.0625 C-5.46863227 30.6763004 -2.87738697 31.5072981 0.1875 32.375 C13.96967376 36.44770977 24.15083312 39.84693144 31.5 52.875 C33.3549186 60.48016628 32.12872583 66.74723502 28.125 73.4375 C21.70141603 81.04437575 13.75719715 84.83531277 3.94140625 85.7265625 C-6.65479542 86.00114016 -14.68242448 84.23261674 -22.88671875 77.33984375 C-25.81072355 74.54222029 -27.87385397 71.97285799 -29.875 68.4375 C-29.79296875 66.4375 -29.79296875 66.4375 -28.875 64.4375 C-26.73046875 62.69921875 -26.73046875 62.69921875 -24.0625 61.125 C-23.18980469 60.59261719 -22.31710937 60.06023438 -21.41796875 59.51171875 C-18.875 58.4375 -18.875 58.4375 -16.69921875 58.52734375 C-14.30926576 59.71976141 -13.71674027 60.95668373 -12.5 63.3125 C-10.17408411 67.25736647 -8.37691182 69.02513551 -3.875 70.4375 C2.08013245 71.00465547 5.88278404 70.31557935 11.125 67.4375 C13.59041029 65.13114843 14.05134705 63.8221321 14.6875 60.5 C14.04166712 56.98379876 12.91336799 55.84079161 10.15551758 53.66186523 C6.02573833 51.17168333 1.31447159 50.16548357 -3.3125 48.9375 C-11.83477539 46.66706589 -18.47178619 44.66852258 -24.1875 37.5625 C-27.24864194 31.89371864 -28.98695433 25.88915167 -27.875 19.4375 C-24.97466181 11.08607977 -20.50176735 5.81925955 -12.703125 1.8046875 C-8.48913316 0.07053218 -4.5129231 -0.0604197 0 0 Z"/>
<path transform="translate(367.6875,704.5390625)" fill="#02315E" d="M0 0 C6.92008066 4.37180771 13.10621687 9.82693004 16.3125 17.4609375 C15.3125 20.4609375 15.3125 20.4609375 13.09765625 21.84765625 C12.19917969 22.27691406 11.30070312 22.70617187 10.375 23.1484375 C9.03115234 23.80392578 9.03115234 23.80392578 7.66015625 24.47265625 C5.3125 25.4609375 5.3125 25.4609375 3.3125 25.4609375 C1.98046875 24.03515625 1.98046875 24.03515625 0.5 22.1484375 C-2.86920145 18.09064013 -6.33823005 15.22511892 -11.6875 14.4609375 C-18.0473387 13.93095094 -22.41714789 14.74773488 -27.6875 18.4609375 C-32.95955213 23.27810017 -35.64808507 28.24670131 -35.98828125 35.484375 C-36.00761107 36.93477229 -36.01106505 38.38545361 -36 39.8359375 C-35.99508545 40.59108643 -35.9901709 41.34623535 -35.98510742 42.12426758 C-35.80758857 50.53137818 -33.72560769 56.42282981 -27.6875 62.4609375 C-21.94075863 65.33925375 -15.96474436 65.19631516 -9.6875 64.4609375 C-3.9082507 62.3436968 -0.63044939 58.73372182 2.3125 53.4609375 C7.76729185 54.02914498 12.22309256 55.40731695 17.3125 57.4609375 C16.67530947 64.25763645 12.48107478 69.62406717 7.6875 74.2109375 C-1.35881503 81.54533391 -11.52744755 82.5131398 -22.76660156 81.67529297 C-32.02620518 80.64200217 -38.57528754 75.17487036 -44.6875 68.4609375 C-52.18779203 58.67108264 -54.79129767 47.64870347 -53.6875 35.4609375 C-51.86571787 22.78437018 -47.00548086 11.45782601 -36.6875 3.4609375 C-25.74661642 -3.05807337 -11.96070824 -5.69749953 0 0 Z"/>
<path transform="translate(88,704)" fill="#01305D" d="M0 0 C17.49 0 34.98 0 53 0 C53 4.95 53 9.9 53 15 C35.675 15.495 35.675 15.495 18 16 C17.67 21.94 17.34 27.88 17 34 C27.23 34 37.46 34 48 34 C48 38.95 48 43.9 48 49 C37.44 49 26.88 49 16 49 C16 59.89 16 70.78 16 82 C11.05 82 6.1 82 1 82 C-0.73141493 80.26858507 -0.11977579 78.04249956 -0.12442017 75.73521423 C-0.12082489 74.98139969 -0.11722961 74.22758514 -0.11352539 73.45092773 C-0.11367142 72.66074249 -0.11381744 71.87055725 -0.1139679 71.056427 C-0.11326857 68.43212178 -0.10547527 65.80788664 -0.09765625 63.18359375 C-0.09579214 61.36898335 -0.0943682 59.55437244 -0.09336853 57.73976135 C-0.08954279 52.9540977 -0.07971204 48.1684642 -0.06866455 43.3828125 C-0.0566573 37.64596429 -0.05204846 31.90910601 -0.04621124 26.17224884 C-0.03650031 17.4481449 -0.01734415 8.72410716 0 0 Z"/>
<path transform="translate(727,703)" fill="#01315D" d="M0 0 C21.12 0 42.24 0 64 0 C64 4.95 64 9.9 64 15 C56.08 15.33 48.16 15.66 40 16 C39.67 37.78 39.34 59.56 39 82 C34.05 82 29.1 82 24 82 C24 60.22 24 38.44 24 16 C16.41 16 8.82 16 1 16 C0.67 15.67 0.34 15.34 0 15 C0 10.05 0 5.1 0 0 Z"/>
<path transform="translate(895,719)" fill="#F9FAFA" d="M0 0 C2.866875 -0.061875 5.73375 -0.12375 8.6875 -0.1875 C10.02880981 -0.22846802 10.02880981 -0.22846802 11.3972168 -0.27026367 C16.08935444 -0.3192004 19.22122733 -0.09960512 23 3 C25.11964681 6.17947021 25.29226781 6.82677473 25 10.4375 C24.95875 11.19933594 24.9175 11.96117187 24.875 12.74609375 C23.46680109 16.37346327 21.44433062 17.30838308 18 19 C14.84750721 19.45181962 11.80085776 19.38066518 8.625 19.25 C4.355625 19.12625 4.355625 19.12625 0 19 C0 12.73 0 6.46 0 0 Z"/>
<path transform="translate(606,723)" fill="#F1F5F7" d="M0 0 C2 1 2 1 2.96142578 3.56030273 C3.2861084 4.67348877 3.61079102 5.7866748 3.9453125 6.93359375 C4.29980469 8.13951172 4.65429688 9.34542969 5.01953125 10.58789062 C5.20080566 11.21928955 5.38208008 11.85068848 5.56884766 12.5012207 C6.12239135 14.42841782 6.68707764 16.35206384 7.25390625 18.27539062 C10 27.69559867 10 27.69559867 10 30 C3.73 30 -2.54 30 -9 30 C-6.6367449 19.75922789 -3.41022867 9.93270488 0 0 Z"/>
<path transform="translate(727,703)" fill="#11335E" d="M0 0 C21.12 0 42.24 0 64 0 C64 3.63 64 7.26 64 11 C63.34 10.67 62.68 10.34 62 10 C62 7.36 62 4.72 62 2 C41.87 2 21.74 2 1 2 C1 5.3 1 8.6 1 12 C0.67 12 0.34 12 0 12 C0 8.04 0 4.08 0 0 Z"/>
<path transform="translate(752,719)" fill="#0B3B64" d="M0 0 C0.33 0 0.66 0 1 0 C1 20.79 1 41.58 1 63 C4.63 63 8.26 63 12 63 C12.33 62.01 12.66 61.02 13 60 C13.33 61.98 13.66 63.96 14 66 C9.05 66 4.1 66 -1 66 C-0.67 44.22 -0.34 22.44 0 0 Z"/>
<path transform="translate(602,383)" fill="#1476B2" d="M0 0 C0.12002606 14.38281461 -0.10268704 28.6429926 -1 43 C-7.6 43 -14.2 43 -21 43 C-21 42.67 -21 42.34 -21 42 C-15.06 42 -9.12 42 -3 42 C-3.0309375 39.0609375 -3.0309375 39.0609375 -3.0625 36.0625 C-3.11692058 24.70054443 -2.50235254 13.34778506 -2 2 C-7.28 2 -12.56 2 -18 2 C-18 1.67 -18 1.34 -18 1 C-15.37504621 0.83257698 -12.75004205 0.6660283 -10.125 0.5 C-9.00544922 0.42845703 -9.00544922 0.42845703 -7.86328125 0.35546875 C-2.2265625 0 -2.2265625 0 0 0 Z"/>
<path transform="translate(576,455)" fill="#0372B0" d="M0 0 C8.25 0 16.5 0 25 0 C25 11.55 25 23.1 25 35 C23 33 23 33 22.77294922 29.92724609 C22.78342285 28.63898926 22.79389648 27.35073242 22.8046875 26.0234375 C22.8075174 25.33819 22.81034729 24.6529425 22.81326294 23.94692993 C22.82446719 21.75610973 22.84957141 19.56569684 22.875 17.375 C22.88502952 15.8906309 22.89415542 14.4062554 22.90234375 12.921875 C22.92270677 9.28096644 22.96185279 5.64093968 23 2 C15.41 2 7.82 2 0 2 C0 1.34 0 0.68 0 0 Z"/>
<path transform="translate(488,734)" fill="#041E4B" d="M0 0 C0.33 0 0.66 0 1 0 C1.67508229 17.0099191 2.15780239 33.97487508 2 51 C-3.28 51 -8.56 51 -14 51 C-14 48.36 -14 45.72 -14 43 C-13.67 43 -13.34 43 -13 43 C-13 44.98 -13 46.96 -13 49 C-8.71 49 -4.42 49 0 49 C0 32.83 0 16.66 0 0 Z"/>
<path transform="translate(392,385)" fill="#0270AF" d="M0 0 C0.66 0 1.32 0 2 0 C2 13.53 2 27.06 2 41 C-2.29 41 -6.58 41 -11 41 C-11 40.67 -11 40.34 -11 40 C-5.555 39.505 -5.555 39.505 0 39 C0 26.13 0 13.26 0 0 Z"/>
<path transform="translate(393,329)" fill="#016DAD" d="M0 0 C0.33 0 0.66 0 1 0 C1.02886751 4.14581887 1.04675327 8.29161216 1.0625 12.4375 C1.07087891 13.62150391 1.07925781 14.80550781 1.08789062 16.02539062 C1.09272461 17.71245117 1.09272461 17.71245117 1.09765625 19.43359375 C1.10551147 20.99678345 1.10551147 20.99678345 1.11352539 22.59155273 C1 25 1 25 0 26 C-1.41570123 26.08651611 -2.835595 26.10704904 -4.25390625 26.09765625 C-5.10791016 26.09443359 -5.96191406 26.09121094 -6.84179688 26.08789062 C-7.73962891 26.07951172 -8.63746094 26.07113281 -9.5625 26.0625 C-10.46419922 26.05798828 -11.36589844 26.05347656 -12.29492188 26.04882812 C-14.53001314 26.03700225 -16.76497437 26.0205222 -19 26 C-19 25.67 -19 25.34 -19 25 C-10.585 24.505 -10.585 24.505 -2 24 C-1.90912109 21.90398437 -1.90912109 21.90398437 -1.81640625 19.765625 C-1.73198297 17.92707358 -1.64733586 16.08853243 -1.5625 14.25 C-1.52318359 13.32960938 -1.48386719 12.40921875 -1.44335938 11.4609375 C-1.40146484 10.57148438 -1.35957031 9.68203125 -1.31640625 8.765625 C-1.27974854 7.94868164 -1.24309082 7.13173828 -1.20532227 6.29003906 C-1.00865725 4.0965577 -0.59699406 2.11603587 0 0 Z"/>
<path transform="translate(936,779)" fill="#041F4D" d="M0 0 C2.2477975 2.05233685 3.0022242 3.00667261 4 6 C-2.27 6 -8.54 6 -15 6 C-15 5.34 -15 4.68 -15 4 C-9.72 4 -4.44 4 1 4 C0.67 2.68 0.34 1.36 0 0 Z"/>
<path transform="translate(625,778)" fill="#072956" d="M0 0 C2 2 2 2 2 5 C9.92 4.505 9.92 4.505 18 4 C18.33 4.99 18.66 5.98 19 7 C13.39 7 7.78 7 2 7 C0 3 0 3 0 0 Z"/>
<path transform="translate(791,703)" fill="#001C4D" d="M0 0 C0 3.63 0 7.26 0 11 C-0.66 10.67 -1.32 10.34 -2 10 C-2 7.36 -2 4.72 -2 2 C-6.95 2 -11.9 2 -17 2 C-17 1.67 -17 1.34 -17 1 C-11.30494264 0.3583034 -5.73266804 -0.12462322 0 0 Z"/>
<path transform="translate(247,735)" fill="#F0F5F7" d="M0 0 C2.66735273 2.48952921 4.55746343 4.63408134 6 8 C3.5625 7.375 3.5625 7.375 1 6 C0.1875 2.875 0.1875 2.875 0 0 Z"/>
</svg>